<?xml version="1.0" encoding="utf-8"?>
<!-- Generator: Adobe Illustrator 27.2.0, SVG Export Plug-In . SVG Version: 6.00 Build 0)  -->
<svg version="1.1" id="Layer_1" xmlns="http://www.w3.org/2000/svg" xmlns:xlink="http://www.w3.org/1999/xlink" x="0px" y="0px"
	 viewBox="0 0 47.2 50" style="enable-background:new 0 0 47.2 50;" xml:space="preserve">
<style type="text/css">
	.st0{fill:#5F6E60;}
</style>
<path class="st0" d="M8.8,8.2v0.2l-0.2,0C7.5,8.6,6.4,8.3,5.4,7.8C6.2,7,7,6.2,7.9,5.4C8.4,6.3,8.8,7.3,8.8,8.2z"/>
<path class="st0" d="M14.8,8.8L14.8,9l-0.2,0c-2.4-0.6-4.4-2.6-4.8-4.8l2.9-1.6C14.4,3.8,15.3,6.4,14.8,8.8z"/>
<path class="st0" d="M16.4,3.1l-0.1,0.2l-0.2,0c-0.8-0.3-1.5-0.8-2-1.4c0,0,0,0,0,0c0,0,0,0,0,0c0,0,0,0,0,0l2.4-0.8
	C16.7,1.6,16.7,2.4,16.4,3.1z"/>
<path class="st0" d="M19.3,17.8l-0.2-0.1c-3.1-1.1-6.6-4.9-6.4-7.9c0-0.1,0-0.3,0-0.4c0.1,0,0.3,0,0.4,0c3,0.6,5.9,4.8,6.2,8.1
	L19.3,17.8z"/>
<path class="st0" d="M19.3,11.8L19.2,12L19,11.8c-2.4-2.1-3.2-6.1-1-8.3c0.1-0.1,0.2-0.2,0.3-0.2c0.1,0.1,0.3,0.1,0.4,0.2
	C21.3,5.2,21.3,9.3,19.3,11.8z"/>
<path class="st0" d="M21.9,0c-0.1,0.9-0.4,1.7-0.9,2.4l-0.1,0.1l-0.2-0.1c-0.8-0.5-1.3-1.3-1.7-2.1L21.9,0z"/>
<path class="st0" d="M23.7,8l-0.1,0.1L23.5,8c-1.7-1.7-2-4.7-0.1-6.2c0.1-0.1,0.2-0.1,0.3-0.2c0.1,0,0.2,0.1,0.3,0.2
	C25.7,3.2,25.4,6.3,23.7,8z"/>
<path class="st0" d="M23.8,20.3l-0.2,0.2l-0.2-0.2c-2.9-3-3.5-8.4-0.2-11c0.1-0.1,0.3-0.2,0.5-0.3c0.1,0.1,0.3,0.2,0.4,0.3
	C27.3,12,26.8,17.3,23.8,20.3z"/>
<path class="st0" d="M28.2,0.4c-0.3,0.8-0.9,1.6-1.7,2.1l-0.2,0.1l-0.1-0.1c-0.5-0.7-0.8-1.6-0.9-2.4L28.2,0.4z"/>
<path class="st0" d="M28.1,11.8L27.9,12l-0.2-0.2c-2-2.5-2-6.6,0.6-8.3c0.1-0.1,0.3-0.1,0.4-0.2c0.1,0.1,0.2,0.2,0.3,0.2
	C31.4,5.7,30.6,9.8,28.1,11.8z"/>
<path class="st0" d="M32.9,1.7c-0.6,0.7-1.3,1.2-2.1,1.5l-0.2,0l-0.1-0.2c-0.2-0.7-0.3-1.5-0.2-2.2L32.9,1.7z"/>
<path class="st0" d="M34.5,9.8c0.2,3-3.2,6.9-6.4,7.9l-0.2,0.1l0-0.2c0.2-3.3,3.2-7.5,6.2-8.1c0.1,0,0.3,0,0.4,0
	C34.5,9.5,34.5,9.7,34.5,9.8z"/>
<path class="st0" d="M37.3,4.1c-0.4,2.3-2.4,4.3-4.8,4.9l-0.2,0l-0.1-0.2c-0.5-2.3,0.4-5,2.2-6.3L37.3,4.1z"/>
<path class="st0" d="M41.7,7.7c-1.1,0.6-2.3,0.9-3.5,0.8l-0.2,0V8.2c0.1-1.1,0.5-2.1,1-3L41.7,7.7z"/>
<path class="st0" d="M44.1,10.6c-1.4,2.6-5.9,4.4-9.1,4l-0.2,0l0.1-0.2c1.5-2.6,5.6-5,8.5-4.7C43.6,9.9,43.8,10.2,44.1,10.6z"/>
<path class="st0" d="M46.9,15.8c-1.6,0-3.3-0.3-4.5-1l-0.2-0.1l0.2-0.2c0.8-0.7,2-1.3,3.2-1.6C46,13.8,46.5,14.8,46.9,15.8z"/>
<path class="st0" d="M46.9,34.1c0.1-0.3,0.2-0.5,0.3-0.8c-0.1,0-0.2,0-0.3,0c-1.6,0-3.2,0.2-4.8,0.4c-1.4,0.2-2.8,0.3-4.1,0.4
	c-1.1,0-2.2,0-3.2-0.3c-2.3-0.7-4.6-1.6-6.6-3c-1-0.7-1.9-1.5-2.7-2.4c-0.2-0.2-0.4-0.5-0.6-0.8c-0.1-0.1-0.3-0.4-0.3-0.4l-0.3-0.3
	v-0.2c0-0.2,0-0.3,0-0.5c0-0.3,0-0.7,0-1c0-0.3,0-0.7,0-1c0-0.3,0-0.7,0-1V23H23v0.3c0,0.3,0,0.7,0,1c0,0.3,0,0.7,0,1
	c0,0.3,0,0.7,0,1c0,0.2,0,0.3,0,0.5v0.2l-0.3,0.3c0,0-0.2,0.2-0.3,0.4c-0.2,0.3-0.4,0.5-0.6,0.8c-0.8,0.9-1.7,1.7-2.7,2.4
	c-2,1.4-4.3,2.3-6.6,3c-1.1,0.3-2.1,0.3-3.2,0.3c-1.4-0.1-2.8-0.2-4.1-0.4c-1.6-0.2-3.2-0.3-4.8-0.4c-0.1,0-0.2,0-0.3,0
	c0.1,0.3,0.2,0.5,0.3,0.8c1.6,0,3.3,0.3,4.6,1l0.2,0.1l-0.2,0.2c-0.9,0.7-2,1.3-3.2,1.6c0.4,0.8,0.9,1.6,1.5,2.3
	c1.4-2.7,5.9-4.4,9.1-4l0.2,0l-0.1,0.2c-1.5,2.6-5.6,5.1-8.5,4.7c0.5,0.7,1.1,1.3,1.7,2c1.1-0.6,2.3-0.9,3.6-0.9l0.2,0v0.2
	c-0.1,1.1-0.5,2.2-1.1,3.1c0.5,0.4,1.1,0.8,1.6,1.2c0.3-2.3,2.4-4.4,4.8-4.9l0.2,0l0.1,0.2c0.5,2.4-0.4,5-2.3,6.3l1.6,0.7
	c0.6-0.7,1.3-1.2,2.1-1.5l0.2,0l0.1,0.2c0.2,0.7,0.3,1.5,0.2,2.2l2.1,0.5c0.3-0.8,0.9-1.6,1.7-2.1l0.2-0.1l0.1,0.1
	c0.5,0.7,0.8,1.6,0.9,2.5h3.5c0.1-0.9,0.4-1.7,0.9-2.5l0.1-0.1l0.2,0.1c0.8,0.5,1.4,1.3,1.7,2.1l2.4-0.6c-0.1-0.7-0.1-1.5,0.2-2.2
	l0.1-0.2l0.2,0c0.8,0.3,1.5,0.8,2.1,1.4l1.5-0.7c-1.8-1.3-2.7-4-2.2-6.3l0.1-0.2l0.2,0c2.4,0.6,4.4,2.6,4.8,4.9l1.8-1.3
	c-0.5-0.9-0.8-1.8-0.9-2.8v-0.2l0.2,0c1.1-0.1,2.3,0.2,3.3,0.7c0.5-0.6,1.1-1.2,1.5-1.8c-2.9,0.3-6.9-2.1-8.4-4.7l-0.1-0.2l0.2,0
	c3.1-0.4,7.6,1.3,9,3.9c0.5-0.7,1-1.5,1.4-2.3c-1.2-0.4-2.3-0.9-3.1-1.6l-0.2-0.2l0.2-0.1C43.7,34.5,45.3,34.2,46.9,34.1L46.9,34.1z
	 M13.1,40.4c-0.1,0-0.3,0-0.4,0c0-0.1,0-0.2,0-0.4c-0.2-3,3.2-6.9,6.4-8l0.2-0.1l0,0.2C19,35.6,16.1,39.9,13.1,40.4z M18.8,46.4
	c-0.1,0.1-0.3,0.1-0.4,0.2c-0.1-0.1-0.2-0.2-0.3-0.2c-2.3-2.2-1.5-6.2,1-8.3l0.2-0.1l0.2,0.2C21.4,40.6,21.4,44.7,18.8,46.4z
	 M23.9,48.1c-0.1,0.1-0.2,0.1-0.3,0.2c-0.1,0-0.2-0.1-0.3-0.2c-1.8-1.5-1.5-4.5,0.1-6.2l0.1-0.1l0.1,0.1
	C25.4,43.6,25.7,46.7,23.9,48.1z M24,40.5c-0.1,0.1-0.3,0.2-0.4,0.3c-0.1-0.1-0.3-0.2-0.5-0.3c-3.2-2.6-2.7-8,0.2-11l0.2-0.2
	l0.2,0.2C26.8,32.6,27.3,37.9,24,40.5z M29.2,46.4c-0.1,0.1-0.2,0.2-0.3,0.2c-0.1-0.1-0.3-0.1-0.4-0.2c-2.6-1.7-2.6-5.8-0.7-8.3
	l0.2-0.2l0.2,0.1C30.7,40.1,31.5,44.2,29.2,46.4z M34.4,40.5c-0.1,0-0.3,0-0.4,0c-3-0.6-5.9-4.8-6.2-8.1l0-0.2l0.2,0.1
	c3.1,1.1,6.6,4.9,6.4,8C34.5,40.2,34.4,40.4,34.4,40.5z"/>
<path class="st0" d="M14.3,48.2c-0.6-0.2-1.1-0.5-1.6-0.7L14.3,48.2z"/>
<path class="st0" d="M18.9,49.6c-0.7-0.1-1.4-0.3-2.1-0.5L18.9,49.6z"/>
<path class="st0" d="M25.3,49.9c-0.6,0-1.1,0.1-1.7,0.1c-0.6,0-1.2,0-1.8-0.1L25.3,49.9L25.3,49.9z"/>
<path class="st0" d="M30.6,49c-0.8,0.2-1.6,0.4-2.4,0.6L30.6,49z"/>
<path class="st0" d="M34.6,47.5c-0.5,0.2-1,0.5-1.5,0.7L34.6,47.5z"/>
<path class="st0" d="M39.3,44.5c-0.6,0.5-1.2,0.9-1.8,1.3L39.3,44.5z"/>
<path class="st0" d="M4.9,14.7l-0.2,0.1c-1.2,0.6-2.8,1-4.4,1c0.4-1,0.8-1.9,1.3-2.9c1.2,0.4,2.3,0.9,3.1,1.6L4.9,14.7z"/>
<path class="st0" d="M5.4,7.8C6.2,7,7,6.2,7.9,5.4c0.5,0.8,0.8,1.8,0.9,2.8v0.2l-0.2,0C7.5,8.6,6.4,8.3,5.4,7.8z"/>
<path class="st0" d="M12.3,14.5l-0.2,0c-3.1,0.4-7.6-1.3-9-3.9l0.8-1c2.9-0.3,6.9,2.1,8.4,4.7L12.3,14.5z"/>
<path class="st0" d="M9.8,4.1c0.9-0.6,1.9-1.2,2.9-1.6c1.8,1.3,2.7,4,2.2,6.3L14.8,9l-0.2,0C12.2,8.4,10.1,6.4,9.8,4.1z"/>
<path class="st0" d="M14.2,1.8C14.2,1.8,14.2,1.8,14.2,1.8C14.2,1.8,14.2,1.8,14.2,1.8C14.2,1.8,14.2,1.8,14.2,1.8
	c0.8-0.3,1.6-0.6,2.5-0.9c0.1,0.7,0.1,1.5-0.2,2.1l-0.1,0.2l-0.2,0C15.4,2.9,14.7,2.4,14.2,1.8z"/>
<path class="st0" d="M19.3,17.6l0,0.2l-0.2-0.1c-3.1-1.1-6.6-4.9-6.4-7.9c0-0.1,0-0.3,0-0.4c0.1,0,0.3,0,0.4,0
	C16.1,10,19.1,14.3,19.3,17.6z"/>
<path class="st0" d="M19.3,11.8L19.2,12L19,11.8c-2.4-2.1-3.2-6.1-1-8.3c0.1-0.1,0.2-0.2,0.3-0.2c0.1,0.1,0.3,0.1,0.4,0.2
	C21.3,5.2,21.3,9.3,19.3,11.8z"/>
<path class="st0" d="M21,2.4l-0.1,0.1l-0.2-0.1c-0.8-0.5-1.3-1.3-1.7-2.1C20,0.2,21,0.1,21.9,0C21.8,0.9,21.5,1.7,21,2.4z"/>
<path class="st0" d="M23.5,8c-1.7-1.7-2-4.7-0.1-6.2c0.1-0.1,0.2-0.1,0.3-0.2c0.1,0,0.2,0.1,0.3,0.2c1.8,1.5,1.5,4.5-0.1,6.2
	l-0.1,0.1L23.5,8z"/>
<path class="st0" d="M23.8,20.3l-0.2,0.2l-0.2-0.2c-2.9-3-3.5-8.4-0.2-11c0.1-0.1,0.3-0.2,0.5-0.3c0.1,0.1,0.3,0.2,0.4,0.3
	C27.3,12,26.8,17.3,23.8,20.3z"/>
<path class="st0" d="M26.4,2.5l-0.1-0.1c-0.5-0.7-0.8-1.6-0.9-2.4c1,0.1,1.9,0.2,2.9,0.4c-0.3,0.8-0.9,1.6-1.7,2.1L26.4,2.5z"/>
<path class="st0" d="M27.9,12l-0.2-0.2c-2-2.5-2-6.6,0.6-8.3c0.1-0.1,0.3-0.1,0.4-0.2c0.1,0.1,0.2,0.2,0.3,0.2
	c2.3,2.2,1.5,6.2-1,8.3L27.9,12z"/>
<path class="st0" d="M30.5,3.1c-0.2-0.7-0.3-1.5-0.2-2.2c0.9,0.2,1.7,0.5,2.5,0.8c-0.6,0.7-1.3,1.2-2.1,1.5l-0.2,0L30.5,3.1z"/>
<path class="st0" d="M34.5,9.4c0,0.1,0,0.2,0,0.4c0.2,3-3.2,6.9-6.4,7.9l-0.2,0.1l0-0.2c0.2-3.3,3.2-7.5,6.2-8.1
	C34.2,9.5,34.4,9.4,34.5,9.4z"/>
<path class="st0" d="M34.5,2.4c1,0.5,1.9,1,2.9,1.6c-0.4,2.3-2.4,4.3-4.8,4.9l-0.2,0l-0.1-0.2C31.8,6.4,32.7,3.8,34.5,2.4z"/>
<path class="st0" d="M38.1,8.5l-0.2,0V8.2c0.1-1.1,0.5-2.1,1-3c1,0.8,1.9,1.6,2.7,2.5C40.6,8.3,39.4,8.6,38.1,8.5z"/>
<path class="st0" d="M35,14.5l-0.2,0l0.1-0.2c1.5-2.6,5.6-5,8.5-4.7c0.2,0.3,0.5,0.6,0.7,0.9C42.7,13.2,38.2,14.9,35,14.5z"/>
<path class="st0" d="M46.9,15.8c-1.6,0-3.3-0.3-4.5-1l-0.2-0.1l0.2-0.2c0.8-0.7,2-1.3,3.2-1.6C46,13.8,46.5,14.8,46.9,15.8z"/>
</svg>
