<?xml version="1.0" encoding="UTF-8"?>
<svg width="1200pt" height="1200pt" version="1.1" viewBox="0 0 1200 1200" xmlns="http://www.w3.org/2000/svg">
 <path d="m854.76 804.41c9.6016 3.2031 13.969-1.4023 13.969-1.4023l-4.6914-47.688 16.43-14.09-9.7188-40.043 6.8516-27.395-26.531-8.2305 20.473-15.406 18.395-9.8984-0.003906-21.895-20.699-35.305 14.016-19.922h11.09l37.066-25.117 17.809-20.184v-0.43359l20.09 4.2617 14.293 10.008 30.66-23.051 11.449-6.6836 38.762 7.7539 75.531-16.117s-0.14453-2.0742-0.40625-5.1484c-0.48047-5.6406-2.0156-7.2617-2.0039-7.3203-38.879-58.559-103.59-91.609-181.33-91.609-113.54 0-233.07 65.867-345.95 190.57-72.742-77.004-187.67-190.57-333.02-190.57-149.28-0.007813-217.27 112.61-217.29 217.27-0.011719 54.84 20.965 105.67 59.027 143.12 39.707 39.059 95.891 60.574 158.26 60.574 136.8 0 253.41-103.81 333.38-190.36 46.02 48.984 136.91 143.8 244.09 184.3m-577.49-21.082c-55.98 0-104.1-18.254-139.2-52.777-32.832-32.305-50.914-76.246-50.914-123.76 0.011719-91.559 59.508-190.12 190.12-190.12 134.91 0 245.12 109.81 314.75 183.6-76.445 82.984-187.65 183.05-314.75 183.05zm787.12-287.48-41.062-8.1953-16.547 9.707-23.438 17.578-7.3672-5.1602-40.332-9.0859v12.109l-12.59 14.508-32.867 22.273h-13.992l-31.211 44.352h14.879l16.488 28.117v10.094l-12.109 6.5742-42.551 31.922 39.625 12.301-4.5469 18.203 8.5195 35.219-15.469 13.262 2.3984 24.359c-97.309-41.207-180.88-128.91-223.25-174.02 108.04-119.91 221.14-183.28 327.29-183.28 64.188 0 117.35 24.898 151.5 69.91z"/>
</svg>
