<?xml version="1.0" encoding="UTF-8"?>
<svg width="1200pt" height="1200pt" version="1.1" viewBox="0 0 1200 1200" xmlns="http://www.w3.org/2000/svg">
 <path d="m600 24c-205.22 0-373.22 166.78-373.22 373.22v648c0 72 63.609 130.78 140.39 130.78 48 0 91.219-22.781 116.39-57.609 25.219 34.828 68.438 57.609 116.44 57.609s91.219-22.781 116.39-57.609c25.219 34.781 68.391 57.609 116.39 57.609 78 0 140.39-58.781 140.39-130.78v-648c0.046875-206.44-167.95-373.22-373.18-373.22zm231.61 1102.8c-50.391 0-91.219-37.219-91.219-81.609v-102c0-13.219-10.781-24-24-24s-24 10.781-24 24v102c0 45.609-40.781 81.609-91.219 81.609-50.391 0-91.219-37.219-91.219-81.609v-102c0-13.219-10.781-24-24-24s-24 10.781-24 24v102c0 45.609-40.781 81.609-91.219 81.609-50.344 0-94.734-36-94.734-81.562v-648c0-178.78 145.22-324 324-324s324 145.22 324 324v648c0 45.562-40.781 81.562-92.391 81.562zm-276-748.78c0 52.781-27.609 96-62.391 96s-62.391-43.219-62.391-96 27.609-96 62.391-96 62.391 43.219 62.391 96zm213.61 0c0 52.781-27.609 96-62.391 96s-62.391-43.219-62.391-96 27.609-96 62.391-96 62.391 43.219 62.391 96zm-118.83 169.22c0 27.609-22.781 50.391-50.391 50.391-27.609 0-50.391-22.781-50.391-50.391s22.781-50.391 50.391-50.391c27.609-1.2188 50.391 21.562 50.391 50.391z"/>
</svg>
