<?xml version="1.0" encoding="UTF-8"?>
<svg width="1200pt" height="1200pt" version="1.1" viewBox="0 0 1200 1200" xmlns="http://www.w3.org/2000/svg">
 <path d="m1073.1 786.92c-27.691-16.152-62.309-11.539-85.383 9.2305l-62.312-34.613c85.383-16.152 145.38-64.617 124.62-108.46-9.2305-20.77-36.922-32.309-69.23-32.309-53.078 0-115.38 27.691-145.38 90l-94.617-55.383v-4.6172-99.23-4.6172l94.617-55.383c30 62.309 92.309 92.309 145.38 92.309 34.617 0 60-11.539 69.23-32.309 20.77-43.848-39.23-94.617-129.23-108.46l62.309-36.922c62.309 55.383 154.62-18.461 113.08-92.309-13.848-23.078-36.922-36.922-64.617-36.922-32.309 0-62.309 20.77-71.539 55.383-2.3086 11.539-2.3086 23.078 0 34.617l-60 34.617c30-85.383 13.848-163.85-34.617-163.85-25.383 0-53.078 23.078-69.23 62.309-18.461 41.539-20.77 101.54 13.848 152.31l-101.54 57.691-46.152-43.848c-4.6172-4.6172-9.2305-6.9219-16.152-6.9219l-23.078-0.003906v-120c36.922 27.691 168.46-41.539 168.46-124.62 0-13.848-4.6172-23.078-11.539-32.309-6.9219-6.9219-16.152-13.848-34.617-13.848-13.848 0-23.078 11.539-23.078 23.078 0 11.539 9.2305 23.078 23.078 23.078 0 25.383-41.539 83.078-108.46 83.078-4.6172 0-9.2305 2.3086-13.848 4.6172l0.003906-133.85c30-9.2305 50.77-36.922 50.77-69.23 0-43.848-32.309-76.152-73.848-76.152s-73.848 32.309-73.848 73.848c0 32.309 20.77 60 50.77 69.23v131.54c-2.3086-2.3086-6.9219-2.3086-11.539-2.3086-66.922 0-108.46-57.691-108.46-83.078 11.539 0 23.078-11.539 23.078-23.078 0-13.848-9.2305-23.078-23.078-23.078-18.461 0-27.691 6.9219-34.617 13.848-6.9219 9.2305-11.539 18.461-11.539 32.309 0 53.078 64.617 129.23 154.62 129.23 4.6172 0 6.9219-2.3086 11.539-2.3086v120h-25.383c-6.9219 0-11.539 2.3086-16.152 6.9219l-46.152 43.848-101.54-57.691c64.617-92.309 4.6172-216.92-53.078-216.92-50.77 0-66.922 78.461-34.617 166.15l-62.309-36.922c9.2305-46.152-25.383-90-71.539-90-25.383 0-50.77 13.848-64.617 36.922-27.691 48.461 6.9219 110.77 64.617 110.77 18.461 0 36.922-6.9219 48.461-18.461l60 34.617c-41.539 6.9219-87.691 23.078-115.38 57.691-18.461 23.078-13.848 41.539-9.2305 50.77 25.383 53.078 163.85 46.152 214.62-57.691l94.617 55.383v4.6172 99.23 4.6172l-94.617 55.383c-30-62.309-92.309-92.309-145.38-92.309-34.617 0-60 11.539-69.23 32.309-4.6172 9.2305-9.2305 27.691 9.2305 50.77 27.691 34.617 78.461 50.77 120 57.691l-62.309 36.922c-25.383-20.77-60-25.383-85.383-9.2305-39.234 23.074-50.773 69.23-32.312 103.84 41.539 71.539 154.62 30 136.15-53.078l60-34.617c-30 85.383-13.848 163.85 34.617 163.85 57.691 0 117.69-122.31 55.383-214.62l101.54-57.691 43.848 43.848c4.6172 4.6172 9.2305 6.9219 16.152 6.9219l30 0.003906v120c-4.6172-2.3086-9.2305-4.6172-13.848-4.6172-90 0-154.62 78.461-154.62 129.23 0 13.848 4.6172 23.078 11.539 32.309 6.9219 6.9219 16.152 13.848 34.617 13.848 13.848 0 23.078-11.539 23.078-23.078 0-11.539-9.2305-23.078-23.078-23.078 0-25.383 41.539-83.078 108.46-83.078 4.6172 0 9.2305-2.3086 13.848-4.6172v133.85c-30 9.2305-50.77 36.922-50.77 69.23 0 41.539 32.309 73.848 73.848 73.848s73.848-32.309 73.848-73.848c0-32.309-20.77-60-50.77-69.23v-131.54c2.3086 2.3086 6.9219 2.3086 11.539 2.3086 66.922 0 108.46 57.691 108.46 83.078-11.539 0-23.078 11.539-23.078 23.078 0 13.848 9.2305 23.078 23.078 23.078 18.461 0 27.691-6.9219 34.617-13.848 6.9219-9.2305 11.539-18.461 11.539-32.309 0-53.078-64.617-129.23-154.62-129.23-4.6172 0-6.9219 2.3086-11.539 2.3086v-117.69h25.383c6.9219 0 11.539-2.3086 16.152-6.9219l43.848-43.848 101.54 57.691c-36.922 53.078-32.309 113.08-13.848 154.62 16.152 36.922 41.539 62.309 69.23 62.309 9.2305 0 32.309-2.3086 43.848-34.617 16.152-41.539 4.6172-92.309-9.2305-133.85l62.309 36.922c-6.9219 30 6.9219 62.309 34.617 78.461 34.617 20.77 80.77 6.9219 101.54-27.691 20.766-32.305 9.2266-78.461-25.387-99.23zm-92.309-120c13.848 0 23.078 2.3086 27.691 4.6172-18.461 32.309-87.691 46.152-124.62 48.461 23.078-41.539 69.234-53.078 96.926-53.078zm-143.08-341.54c9.2305-25.383 20.77-39.23 27.691-41.539 18.461 32.309-4.6172 99.23-20.77 133.85-20.766-39.23-11.535-76.152-6.9219-92.309zm-237.69-256.15c16.152 0 27.691 11.539 27.691 27.691s-11.539 27.691-27.691 27.691-27.691-11.539-27.691-27.691 11.539-27.691 27.691-27.691zm-408.46 459.23c18.461-32.309 87.691-46.152 124.62-48.461-30.004 53.078-101.54 62.309-124.62 48.461zm143.08 387.69c-18.461-32.309 4.6172-99.23 20.77-133.85 29.996 57.695 2.3047 122.31-20.77 133.85zm265.38 214.62c-16.152 0-27.691-11.539-27.691-27.691s11.539-27.691 27.691-27.691 27.691 11.539 27.691 27.691-11.539 27.691-27.691 27.691zm408.46-600c-23.078 13.848-94.617 4.6172-124.62-48.461 36.926 2.3086 106.16 16.152 124.62 48.461zm0-189.23c6.9219-23.078 39.23-27.691 50.77-6.9219 18.461 32.309-30 60-48.461 27.691-4.6172-6.9258-4.6172-13.848-2.3086-20.77zm-673.84-60c23.078 11.539 50.77 78.461 20.77 133.85-16.156-36.926-39.234-101.54-20.77-133.85zm-193.85 53.078c4.6172-9.2305 13.848-13.848 25.383-13.848 20.77 0 34.617 23.078 25.383 41.539-20.766 32.309-69.227 4.6133-50.766-27.691zm50.77 334.61c23.078-13.848 94.617-4.6172 124.62 48.461-39.234-2.3086-106.16-16.152-124.62-48.461zm-50.77 196.15c-18.461-32.309 30-60 48.461-27.691 18.461 32.309-30 60-48.461 27.691zm498.46-168.46h-80.77l-55.383-55.383v-78.461l55.383-55.383h80.77c13.848 13.848 41.539 41.539 55.383 55.383v78.461zm226.15 219.23c0 2.3086 0 2.3086-2.3086 2.3086-6.9219-2.3086-18.461-16.152-27.691-41.539-4.6172-16.152-13.848-53.078 6.9219-92.309 18.465 39.234 36.926 94.617 23.078 131.54zm193.85-50.77c-6.9219 13.848-25.383 18.461-39.23 9.2305-13.848-6.9219-18.461-25.383-9.2305-39.23 6.9219-13.848 25.383-18.461 39.23-9.2305 11.539 9.2305 16.152 25.387 9.2305 39.23z"/>
</svg>
