<?xml version="1.0" encoding="UTF-8"?>
<svg width="1200pt" height="1200pt" version="1.1" viewBox="0 0 1200 1200" xmlns="http://www.w3.org/2000/svg">
 <path d="m870.71 601.4c46.5 30.75 78.234 66.469 89.391 100.55 2.5781 7.9219 9.9375 12.938 17.812 12.938 1.9219 0 3.8906-0.28125 5.8125-0.9375 9.8438-3.2344 15.188-13.828 12-23.625-13.781-42.094-50.812-84.75-104.3-120.14-8.6719-5.7188-20.297-3.3281-25.969 5.2969-5.7656 8.5781-3.375 20.203 5.25 25.922z"/>
 <path d="m1101.6 860.06c-3.5625-4.5-9-7.125-14.719-7.125l-3.8438-0.046875c10.734-17.156 17.109-39.188 10.359-64.547-4.125-15.375-11.812-27.938-21.797-37.641 0.42188-7.0781 0.75-14.391 0.75-22.453 0-153.42-191.72-275.9-370.82-302.81-42.609-31.5-111.38-70.266-167.11-71.812l-8.0156-9.4688c-12.188-14.391-21.656-35.438-20.766-45.938 1.7812-20.156-6.9844-39.516-23.484-51.844-17.016-12.703-40.266-14.812-59.25-5.3906-13.172 6.5156-23.109 17.438-28.312 30.609-13.875 2.9531-26.297 10.922-34.875 22.781-12.469 17.156-14.25 40.453-4.5469 59.344 9.4219 18.281 27.047 30.188 47.203 31.781 10.5 0.84375 29.672 13.688 41.812 28.125l7.9219 9.3281c-1.6406 11.438-1.7812 24.234-0.5625 38.297-3.6094 2.1094-7.2656 4.4531-10.969 6.8438-22.453-3.3281-45.375-5.2031-67.125-5.2031-39.094 0-71.062 5.9062-95.062 16.828l-11.484-5.1094c-17.203-7.6406-34.969-22.453-38.719-32.297-7.2188-18.938-23.531-32.531-43.734-36.422-20.812-4.125-42.703 4.2188-55.688 20.953-9 11.625-13.172 25.781-12.141 39.891-11.109 8.7656-18.844 21.328-21.422 35.812-3.7031 20.859 4.8281 42.609 21.797 55.312 16.406 12.375 37.453 15.375 56.344 8.0156 9.7969-3.8438 32.625-0.5625 49.875 7.0312l11.438 5.0625c12.141 38.297 44.531 78.844 82.359 112.97-1.125 12.562-1.875 24.891-1.875 37.219 0 45.562 7.125 87.188 20.625 124.64h-40.734c-5.7188 0-11.156 2.625-14.719 7.125s-4.875 10.359-3.5156 15.984l6.0938 25.547c8.9062 37.266 41.906 63.281 80.25 63.281h655.64c38.297 0 71.297-26.016 80.25-63.281l6.0938-25.547c1.3594-5.4844 0.046876-11.344-3.5156-15.844zm-388.6-7.1719c-9.3281-6.7031-32.344-26.578-24.797-54.891 3.75-14.016 11.062-23.297 21.75-27.562 12.938-5.1562 30.047-2.7656 44.672 6.2812 6.5156 4.0312 12.281 8.8125 17.156 14.203 8.2969 9.1875 20.578 13.781 32.766 12.469 11.906-1.3594 22.078-8.0156 27.891-18.375 9.5156-16.828 22.641-25.031 40.266-25.031 18.844 0 32.297 7.6406 41.109 23.391 5.8125 10.406 15.938 17.203 27.797 18.609 12.047 1.5 24.422-3.0469 32.906-12.094 4.6875-5.0156 10.125-9.4688 16.219-13.219 14.625-9.0469 31.734-11.438 44.672-6.2812 10.688 4.2656 18 13.5 21.75 27.562 7.5469 28.359-15.422 48.188-24.797 54.891zm-224.81-409.4c0.14062-20.906 4.9688-36.281 14.344-44.203 19.594-16.641 66.656-7.5 119.25 20.062-49.5 0.23438-94.266 8.3906-133.6 24.141zm-82.875-95.344c-7.2188-0.5625-13.359-4.7812-16.828-11.531-3.1875-6.1875-2.5781-14.484 1.5469-20.156 5.8594-8.1094 13.875-8.7656 18.094-8.5312 10.312 0.84375 19.031-6.75 19.969-16.875 0.42188-4.2188 2.4375-11.953 11.438-16.406 6.2812-3.0938 14.578-2.3438 20.156 1.8281 6.0938 4.5469 9.1875 11.297 8.5781 18.516-2.1094 23.859 12.422 50.672 24.234 66.703-5.0156 2.4375-9.8438 5.2969-14.203 9-4.2656 3.6094-7.875 7.9219-11.156 12.469-13.922-14.297-37.922-33.141-61.828-35.016zm-245.58 182.86c-6.75 2.625-14.109 1.5-20.203-3.0469-5.5781-4.2188-8.625-11.953-7.4062-18.797 1.7812-9.8906 8.625-14.016 12.562-15.562 9.4219-3.7969 14.156-14.391 10.641-23.953-1.4531-3.9844-3.0469-11.812 3.1406-19.734 4.2656-5.5312 12-8.4375 18.938-7.125 7.4531 1.4062 13.172 6.1406 15.75 12.891 8.4844 22.359 33.188 40.078 50.812 49.406-3.4688 4.3594-6.4688 9-8.6719 13.969-2.3438 5.2969-3.8906 10.781-4.875 16.406-18.75-6.75-48.469-13.172-70.688-4.4531zm109.73 3.3281c9.4688-21.281 48.328-33.938 103.92-33.938 52.359 0 111.66 11.344 151.08 28.922 71.859 32.062 105.94 95.906 80.953 151.82-16.734 37.547-56.344 60.844-103.36 60.844-21.891 0-44.062-4.9219-65.906-14.625-83.156-37.125-187.13-147.14-166.69-193.03zm151.5 227.29c26.672 11.906 53.953 17.906 81.141 17.906 62.016 0 114.75-31.828 137.63-83.062 33.234-74.578-9.75-161.16-99.938-201.37-12.375-5.5312-26.578-10.406-41.672-14.672 36.516-15.375 78.562-23.625 126.1-23.625 22.547 0 45.141 1.6875 67.312 5.0625 165.1 23.344 343.31 131.86 343.31 266.44 0 1.2188-0.046876 2.25-0.046876 3.4219-20.766-3.7031-43.641 0.75-63.703 13.172-8.9062 5.4844-16.969 12.047-24.516 20.25-15.609-27.844-41.156-42.562-73.828-42.562-30.984 0-56.859 15.656-73.078 43.266-7.2188-8.0156-15.75-15.047-25.266-20.953-24.891-15.375-54.141-18.844-78.234-9.1875-21.656 8.625-37.359 27.328-44.109 52.734-6.75 25.312-0.42188 47.297 10.266 64.453l-286.78-0.14062c-15.188-36.328-22.875-78.141-22.875-124.5 0-2.625 0.1875-5.2031 0.23438-7.8281 23.672 17.625 47.484 32.016 68.062 41.203zm641.58 131.21c-4.875 20.344-22.875 34.5-43.734 34.5h-655.69c-20.906 0-38.906-14.203-43.734-34.5l-0.5625-2.4375h744.32z"/>
</svg>
